<svg width="34" height="27" viewBox="0 0 34 27" fill="none" xmlns="http://www.w3.org/2000/svg">
<path d="M1.18669 12.981L1.18661 12.9809C0.890935 12.7099 0.868811 12.2514 1.14032 11.9566C1.41288 11.658 1.86998 11.639 2.16459 11.9089C2.1646 11.9089 2.16462 11.9089 2.16464 11.9089L4.79491 14.3094L7.71902 12.2776C7.71903 12.2776 7.71904 12.2776 7.71905 12.2776C8.047 12.0483 8.50104 12.1296 8.72892 12.4576L8.72897 12.4577C8.95661 12.7868 8.877 13.2394 8.54756 13.4687L8.54752 13.4687L5.14673 15.8309C5.14662 15.831 5.14651 15.831 5.1464 15.8311C5.02264 15.9198 4.88005 15.9618 4.73394 15.9618C4.55702 15.9618 4.3828 15.898 4.245 15.7718L1.18669 12.981ZM1.18669 12.981L4.24493 15.7718L1.18669 12.981Z" fill="#D55A46" stroke="#D55A46" stroke-width="0.1"/>
<path d="M29.3937 9.84307L29.3937 9.84302C27.6213 4.52317 22.654 0.95 17.032 0.95C9.85174 0.95 4.00847 6.77955 4.00847 13.9451C4.00847 14.347 4.33493 14.6705 4.73389 14.6705C5.13427 14.6705 5.45931 14.347 5.45931 13.9451C5.45931 7.58066 10.6511 2.40084 17.032 2.40084C22.0276 2.40084 26.4432 5.57649 28.0169 10.3015L28.0169 10.3016C28.1445 10.683 28.5523 10.8875 28.935 10.7614L28.9353 10.7613C29.3139 10.6337 29.5199 10.2232 29.3937 9.84307Z" fill="#D55A46" stroke="#D55A46" stroke-width="0.1"/>
<path d="M29.8321 12.13C29.5869 11.895 29.2099 11.863 28.931 12.0488C28.931 12.0488 28.9309 12.0489 28.9309 12.0489L25.4771 14.3343C25.4771 14.3343 25.4771 14.3343 25.477 14.3344C25.1431 14.5536 25.0519 15.0062 25.2724 15.3385C25.4929 15.6735 25.9427 15.7664 26.2778 15.5444C26.2778 15.5444 26.2778 15.5444 26.2778 15.5444L29.2474 13.5793L31.8228 16.0384C31.8228 16.0385 31.8228 16.0385 31.8229 16.0386C31.9638 16.1751 32.1454 16.2403 32.3236 16.2403C32.5167 16.2403 32.7052 16.1633 32.8483 16.0173L32.8488 16.0168C33.1257 15.7268 33.1158 15.2668 32.8254 14.991L29.8321 12.13ZM29.8321 12.13L29.7975 12.1661M29.8321 12.13L29.8321 12.13L29.7975 12.1661M29.7975 12.1661C29.5692 11.9473 29.218 11.9176 28.9586 12.0905M29.7975 12.1661L28.9586 12.0905M28.9586 12.0905L25.5045 14.3761C25.1938 14.5801 25.1087 15.0016 25.3141 15.3109L28.9586 12.0905Z" fill="#D55A46" stroke="#D55A46" stroke-width="0.1"/>
<path d="M4.67024 18.0444L4.67025 18.0445C6.44128 23.367 11.4099 26.9402 17.032 26.9402C24.2135 26.9402 30.0555 21.1106 30.0541 13.9437C30.0541 13.5419 29.7291 13.2183 29.3287 13.2183C28.9297 13.2183 28.6033 13.5418 28.6033 13.9437C28.6033 20.3082 23.4115 25.488 17.0306 25.488C12.035 25.488 7.62074 22.3137 6.04573 17.586L6.04573 17.586C5.9195 17.2073 5.51032 17.0013 5.12883 17.1288C4.74844 17.2538 4.5441 17.6645 4.67024 18.0444Z" fill="#D55A46" stroke="#D55A46" stroke-width="0.1"/>
<path d="M12.9295 13.9451C12.9295 16.207 14.7701 18.0476 17.032 18.0476C19.2939 18.0476 21.1345 16.207 21.1345 13.9451C21.1345 11.6832 19.2926 9.84258 17.032 9.84258C14.7701 9.84258 12.9295 11.6832 12.9295 13.9451ZM14.3803 13.9451C14.3803 12.4841 15.5683 11.2934 17.032 11.2934C18.4944 11.2934 19.6837 12.4841 19.6837 13.9451C19.6837 15.4088 18.4944 16.5968 17.032 16.5968C15.5683 16.5968 14.3803 15.4088 14.3803 13.9451Z" fill="#D55A46" stroke="#D55A46" stroke-width="0.1"/>
</svg>
