<svg width="32" height="24" viewBox="0 0 32 24" fill="none" xmlns="http://www.w3.org/2000/svg">
<path d="M22.22 10.4237C21.1357 10.8882 20.3133 11.8499 20.046 13.0233C19.5225 12.6251 18.9342 12.3083 18.2991 12.0919C19.3454 11.431 20.0429 10.265 20.0429 8.93678C20.0429 6.87859 18.3689 5.20459 16.3107 5.20459C14.2525 5.20459 12.5785 6.87859 12.5785 8.93678C12.5785 10.265 13.276 11.431 14.3223 12.0921C13.6872 12.3084 13.0991 12.6252 12.5755 13.0236C12.3081 11.8502 11.4859 10.8881 10.4016 10.4239C10.7875 10.0461 11.0302 9.52122 11.0302 8.93678C11.0302 7.78232 10.0911 6.84327 8.93666 6.84327C7.7822 6.84327 6.84315 7.78232 6.84315 8.93678C6.84315 9.52113 7.08577 10.046 7.47163 10.4236C6.14087 10.9938 5.20447 12.3141 5.20447 13.8528C5.20447 14.104 5.40816 14.3077 5.6593 14.3077C5.91044 14.3077 6.11414 14.104 6.11414 13.8528C6.11414 12.2965 7.38034 11.0303 8.93666 11.0303C10.4643 11.0303 11.7125 12.2503 11.7579 13.7672C10.7446 14.8693 10.1205 16.3366 10.1205 17.9495C10.1205 18.2007 10.3242 18.4044 10.5753 18.4044C10.8265 18.4044 11.0302 18.2007 11.0302 17.9495C11.0302 15.038 13.3992 12.669 16.3107 12.669C19.2222 12.669 21.5913 15.038 21.5913 17.9495C21.5913 18.2007 21.795 18.4044 22.0461 18.4044C22.2972 18.4044 22.5009 18.2007 22.5009 17.9495C22.5009 16.3366 21.8769 14.8693 20.8635 13.7672C20.909 12.2503 22.1571 11.0303 23.6848 11.0303C25.2411 11.0303 26.5073 12.2965 26.5073 13.8528C26.5073 14.104 26.711 14.3077 26.9621 14.3077C27.2133 14.3077 27.417 14.104 27.417 13.8528C27.417 12.3141 26.4806 10.9939 25.1496 10.4237C25.5357 10.0461 25.7783 9.52146 25.7783 8.93678C25.7783 7.78232 24.8392 6.84327 23.6848 6.84327C22.5303 6.84327 21.5913 7.78232 21.5913 8.93678C21.5913 9.52147 21.8339 10.0461 22.22 10.4237ZM20.8497 13.9333L20.8498 13.9331L20.8497 13.9333ZM7.75282 8.93678C7.75282 8.28419 8.28407 7.75294 8.93666 7.75294C9.58925 7.75294 10.1205 8.28419 10.1205 8.93678C10.1205 9.58938 9.58925 10.1206 8.93666 10.1206C8.28407 10.1206 7.75282 9.58938 7.75282 8.93678ZM13.4882 8.93678C13.4882 7.38046 14.7544 6.11426 16.3107 6.11426C17.867 6.11426 19.1332 7.38046 19.1332 8.93678C19.1332 10.4931 17.867 11.7593 16.3107 11.7593C14.7544 11.7593 13.4882 10.4931 13.4882 8.93678ZM22.5009 8.93678C22.5009 8.28419 23.0322 7.75294 23.6848 7.75294C24.3374 7.75294 24.8686 8.28419 24.8686 8.93678C24.8686 9.58938 24.3374 10.1206 23.6848 10.1206C23.0322 10.1206 22.5009 9.58938 22.5009 8.93678Z" fill="#D55A46" stroke="#D55A46" stroke-width="0.5"/>
<rect x="0.75" y="0.75" width="30.1364" height="22.5" rx="2.52273" stroke="#D55A46" stroke-width="1.5"/>
</svg>
