<svg width="122" height="122" viewBox="0 0 122 122" fill="none" xmlns="http://www.w3.org/2000/svg">
<path d="M96.5833 71.1666C82.5533 71.1666 71.1666 82.5533 71.1666 96.5833C71.1666 110.613 82.5533 122 96.5833 122C110.613 122 122 110.613 122 96.5833C122 82.5533 110.613 71.1666 96.5833 71.1666ZM96.5833 116.917C85.3491 116.917 76.25 107.817 76.25 96.5833C76.25 85.3491 85.3491 76.25 96.5833 76.25C107.817 76.25 116.917 85.3491 116.917 96.5833C116.917 107.817 107.817 116.917 96.5833 116.917Z" fill="#A80532"/>
<path d="M52.1042 54.6459H59.7292C61.1271 54.6459 62.2708 55.7896 62.2708 57.1875V64.8125C62.2708 66.2105 61.1271 67.3542 59.7292 67.3542H52.1042C50.7063 67.3542 49.5625 66.2105 49.5625 64.8125V57.1875C49.5625 55.7896 50.7063 54.6459 52.1042 54.6459Z" fill="#A80532"/>
<path d="M82.6042 54.6459H90.2292C91.6271 54.6459 92.7708 55.7896 92.7708 57.1875V64.8125C92.7708 66.2105 91.6271 67.3542 90.2292 67.3542H82.6042C81.2063 67.3542 80.0625 66.2105 80.0625 64.8125V57.1875C80.0625 55.7896 81.2063 54.6459 82.6042 54.6459Z" fill="#A80532"/>
<path d="M52.1042 80.0625H59.7292C61.1271 80.0625 62.2708 81.2063 62.2708 82.6042V90.2292C62.2708 91.6271 61.1271 92.7708 59.7292 92.7708H52.1042C50.7063 92.7708 49.5625 91.6271 49.5625 90.2292V82.6042C49.5625 81.2063 50.7063 80.0625 52.1042 80.0625Z" fill="#A80532"/>
<path d="M21.6042 54.6459H29.2292C30.6271 54.6459 31.7708 55.7896 31.7708 57.1875V64.8125C31.7708 66.2105 30.6271 67.3542 29.2292 67.3542H21.6042C20.2062 67.3542 19.0625 66.2105 19.0625 64.8125V57.1875C19.0625 55.7896 20.2062 54.6459 21.6042 54.6459Z" fill="#A80532"/>
<path d="M21.6042 80.0625H29.2292C30.6271 80.0625 31.7708 81.2063 31.7708 82.6042V90.2292C31.7708 91.6271 30.6271 92.7708 29.2292 92.7708H21.6042C20.2062 92.7708 19.0625 91.6271 19.0625 90.2292V82.6042C19.0625 81.2063 20.2062 80.0625 21.6042 80.0625Z" fill="#A80532"/>
<path d="M103.675 88.4247L92.7709 99.3539L89.4921 96.0497C88.5009 95.0585 86.8742 95.0585 85.883 96.0497C84.8917 97.041 84.8917 98.6676 85.883 99.6589L90.9663 104.742C91.9575 105.733 93.5588 105.733 94.55 104.768C94.55 104.768 94.55 104.768 94.5755 104.742L107.284 92.0339C108.275 91.0426 108.275 89.416 107.284 88.4247C106.293 87.4335 104.666 87.4335 103.675 88.4247Z" fill="#A80532"/>
<path d="M64.8633 106.75H12.7083C8.48917 106.75 5.08333 103.344 5.08333 99.125V43.2083H106.75V64.8633C106.75 66.2613 107.894 67.405 109.292 67.405C110.69 67.405 111.833 66.2613 111.833 64.8633V22.875C111.833 15.86 106.14 10.1667 99.125 10.1667H90.2292V8.89583C90.2292 3.99042 86.2388 0 81.3333 0C76.4279 0 72.4375 3.99042 72.4375 8.89583V10.1667H39.3958V8.89583C39.3958 3.99042 35.4054 0 30.5 0C25.5946 0 21.6042 3.99042 21.6042 8.89583V10.1667H12.7083C5.69333 10.1667 0 15.86 0 22.875V99.125C0 106.14 5.69333 111.833 12.7083 111.833H64.8633C66.2613 111.833 67.405 110.69 67.405 109.292C67.405 107.894 66.2613 106.75 64.8633 106.75ZM77.5717 8.89583C77.5717 6.78625 79.2746 5.08333 81.3842 5.08333C83.4938 5.08333 85.1967 6.78625 85.1967 8.89583V16.5208C85.1967 18.6304 83.4938 20.3333 81.3842 20.3333C79.2746 20.3333 77.5717 18.6304 77.5717 16.5208V8.89583ZM26.7383 8.89583C26.7383 6.78625 28.4413 5.08333 30.5508 5.08333C32.6604 5.08333 34.3633 6.78625 34.3633 8.89583V16.5208C34.3633 18.6304 32.6604 20.3333 30.5508 20.3333C28.4413 20.3333 26.7383 18.6304 26.7383 16.5208V8.89583ZM12.7083 15.25H21.6042V16.5208C21.6042 21.4263 25.5946 25.4167 30.5 25.4167C35.4054 25.4167 39.3958 21.4263 39.3958 16.5208V15.25H72.4375V16.5208C72.4375 21.4263 76.4279 25.4167 81.3333 25.4167C86.2388 25.4167 90.2292 21.4263 90.2292 16.5208V15.25H99.125C103.344 15.25 106.75 18.6558 106.75 22.875V38.125H5.08333V22.875C5.08333 18.6558 8.48917 15.25 12.7083 15.25Z" fill="#A80532"/>
</svg>
