<svg width="31" height="26" viewBox="0 0 31 26" fill="none" xmlns="http://www.w3.org/2000/svg">
<path d="M8.7704 0.875532L8.7704 0.875704L8.7704 0.875532ZM8.7704 0.875532L8.76386 0.876134M8.7704 0.875532L8.76386 0.876134M8.76386 0.876134C8.57476 0.893542 8.39636 0.969953 8.26535 1.09522C8.13415 1.22065 8.05932 1.38727 8.06334 1.56333V3.05137H4.6871C2.6193 3.05137 0.875503 4.48135 0.875503 6.26735V9.51373V9.58006C0.874832 9.59627 0.874832 9.6125 0.875503 9.62871V22.2316C0.875503 24.0176 2.6184 25.4476 4.6871 25.4476H26.3227C28.3919 25.4476 30.124 24.0172 30.124 22.2316V9.66267C30.1244 9.65103 30.1244 9.63938 30.1241 9.62773C30.1253 9.60573 30.1253 9.58369 30.124 9.5617V6.26735C30.124 4.48176 28.391 3.05137 26.3227 3.05137H22.8332V1.56287C22.8347 1.46909 22.8139 1.37667 22.7726 1.29131C22.7313 1.20567 22.6706 1.12952 22.5956 1.06661L22.5152 1.16239M8.76386 0.876134L22.5152 1.16239M22.5152 1.16239L22.5956 1.06661C22.5206 1.00372 22.4324 0.955061 22.3368 0.922599C22.2412 0.890141 22.1394 0.874271 22.0372 0.875618L22.5152 1.16239ZM21.2651 1.56287C21.2636 1.47095 21.2836 1.3803 21.3233 1.29631C21.3631 1.21204 21.4215 1.13674 21.494 1.07401C21.5665 1.01132 21.6519 0.962144 21.7448 0.928443L21.7874 1.04595L21.7448 0.928442C21.8377 0.894745 21.937 0.876924 22.0372 0.875618L21.2651 1.56287ZM21.2651 1.56287V3.05137H9.63146V1.56293C9.63302 1.46913 9.61213 1.37668 9.57089 1.29131C9.52953 1.20567 9.46885 1.12952 9.39382 1.06661C9.31882 1.00372 9.23068 0.955061 9.13508 0.9226C9.04051 0.890486 8.93984 0.874611 8.83874 0.875581C8.83983 0.87562 8.84092 0.875661 8.84202 0.875704L21.2651 1.56287ZM8.06334 4.40653H4.6871C3.43415 4.40653 2.44362 5.2607 2.44362 6.26735V8.9484H28.5559V6.26735C28.5559 5.26007 27.5749 4.40653 26.3227 4.40653H22.8332V5.89576V5.89608H22.7082C22.7084 5.96875 22.6915 6.04074 22.6584 6.10792C22.6254 6.1751 22.5769 6.23616 22.5157 6.2876C22.4545 6.33904 22.3817 6.37985 22.3017 6.4077C22.2216 6.43554 22.1358 6.44987 22.0491 6.44987C21.9625 6.44987 21.8766 6.43554 21.7966 6.4077C21.7165 6.37985 21.6438 6.33904 21.5826 6.2876C21.5214 6.23616 21.4729 6.1751 21.4398 6.10792L8.06334 4.40653ZM8.06334 4.40653L8.06334 5.89576C8.06334 5.89582 8.06334 5.89589 8.06334 5.89595M8.06334 4.40653V5.89595M8.06334 5.89595V5.89608H8.18834L8.06334 5.89595ZM21.2651 4.40653V5.89576L9.50646 5.89608H9.63146V5.89576V4.40653H21.2651ZM2.44362 10.3035H28.5559V22.2316C28.5559 23.2389 27.5741 24.0924 26.3227 24.0924H4.6871C3.43499 24.0924 2.44362 23.2382 2.44362 22.2316V10.3035Z" fill="#D55A46" stroke="#D55A46" stroke-width="0.25"/>
</svg>
