<svg width="41" height="28" viewBox="0 0 41 28" fill="none" xmlns="http://www.w3.org/2000/svg">
<path d="M33.3154 20.3715H1.00872C0.453925 20.3715 0 19.9222 0 19.3731V0.998379C0 0.449271 0.453925 0 1.00872 0H33.3154C33.8702 0 34.3241 0.449271 34.3241 0.998379V19.3731C34.3241 19.9222 33.8702 20.3715 33.3154 20.3715ZM1.43972 18.942H32.8798V1.42496H1.43972V18.942Z" fill="#D55A46"/>
<path d="M35.8646 25.15C35.8371 25.15 35.805 25.15 35.7775 25.1455L3.58552 22.4226C3.03531 22.3772 2.62723 21.9007 2.66391 21.3562L2.73727 20.1899C2.7602 19.7951 3.10408 19.4955 3.50299 19.5228C3.90189 19.5455 4.19992 19.8858 4.177 20.2806L4.13115 21.043L35.4703 23.6933L36.7817 8.47252L33.6776 8.23654C33.2832 8.20477 32.9852 7.86442 33.0127 7.4696C33.0448 7.07479 33.3887 6.78435 33.7876 6.81158L37.3319 7.08387C37.607 7.10656 37.85 7.23362 38.0242 7.4333C38.1985 7.63751 38.281 7.89618 38.2581 8.15939L36.8688 24.2333C36.8459 24.4965 36.7221 24.7416 36.5157 24.9095C36.3323 25.0683 36.1031 25.15 35.8646 25.15Z" fill="#D55A46"/>
<path d="M38.602 27.9999C38.5745 27.9999 38.5424 27.9999 38.5149 27.9954L6.32748 25.2771C5.77727 25.2317 5.36461 24.7507 5.41046 24.2061L5.48382 23.1714C5.51133 22.7766 5.8598 22.4816 6.25412 22.5088C6.65303 22.5361 6.95106 22.8764 6.92355 23.2712L6.8777 23.893L38.2123 26.5432L39.5282 11.2771L38.4599 11.0729C38.0702 11.0002 37.8134 10.6236 37.8867 10.2378C37.9647 9.85211 38.3407 9.59798 38.7304 9.67059L40.1243 9.93833C40.3719 9.9701 40.5965 10.0926 40.7616 10.2832C40.9358 10.4874 41.0184 10.7461 40.9955 11.0093L39.6062 27.0878C39.5603 27.6096 39.1201 27.9999 38.602 27.9999Z" fill="#D55A46"/>
<path d="M15.4427 19.9676C15.1997 19.9676 14.9612 19.8451 14.8283 19.6273C14.6311 19.3096 10.0139 11.79 9.4591 7.21106C8.98225 3.27653 11.5866 0.907652 13.0309 0.208787C13.3885 0.0363397 13.8195 0.181558 13.9938 0.535529C14.168 0.8895 14.0213 1.31608 13.6682 1.48853C13.5261 1.5566 10.422 3.14947 10.8897 7.04768C11.4032 11.318 16.0112 18.8104 16.0571 18.8876C16.2634 19.2234 16.1579 19.6636 15.8186 19.8678C15.6994 19.9359 15.571 19.9676 15.4427 19.9676Z" fill="#D55A46"/>
<path d="M7.74426 4.23404H3.21876C2.81986 4.23404 2.4989 3.91638 2.4989 3.52156C2.4989 3.12675 2.81986 2.80908 3.21876 2.80908H7.74426C8.14316 2.80908 8.46412 3.12675 8.46412 3.52156C8.46412 3.91184 8.14316 4.23404 7.74426 4.23404Z" fill="#D55A46"/>
<path d="M5.31416 6.2399H3.21876C2.81986 6.2399 2.4989 5.92224 2.4989 5.52742C2.4989 5.13261 2.81986 4.81494 3.21876 4.81494H5.31416C5.71306 4.81494 6.03402 5.13261 6.03402 5.52742C6.03402 5.92224 5.70847 6.2399 5.31416 6.2399Z" fill="#D55A46"/>
<path d="M5.71765 17.5988H3.62684C3.22794 17.5988 2.90698 17.2811 2.90698 16.8863C2.90698 16.4915 3.22794 16.1738 3.62684 16.1738H5.71765C6.11655 16.1738 6.43751 16.4915 6.43751 16.8863C6.43751 17.2766 6.11655 17.5988 5.71765 17.5988Z" fill="#D55A46"/>
<path d="M27.8636 17.3309C26.0709 17.3309 24.6128 16.1601 24.6128 14.717C24.6128 13.2784 26.0709 12.103 27.8636 12.103C29.6564 12.103 31.1145 13.2739 31.1145 14.717C31.1099 16.1601 29.6518 17.3309 27.8636 17.3309ZM27.8636 13.5325C26.8824 13.5325 26.0571 14.0771 26.0571 14.717C26.0571 15.3614 26.887 15.9014 27.8636 15.9014C28.8403 15.9014 29.6702 15.3568 29.6702 14.717C29.6702 14.0771 28.8403 13.5325 27.8636 13.5325Z" fill="#D55A46"/>
<path d="M30.8532 7.83715C30.4543 7.83715 30.1333 7.51949 30.1333 7.12467V4.18399H28.4414C28.0425 4.18399 27.7216 3.86633 27.7216 3.47151C27.7216 3.0767 28.0425 2.75903 28.4414 2.75903H30.8532C31.2521 2.75903 31.573 3.0767 31.573 3.47151V7.12467C31.5776 7.51949 31.2521 7.83715 30.8532 7.83715Z" fill="#D55A46"/>
<path d="M7.88645 17.5623C8.29161 17.5623 8.62006 17.2372 8.62006 16.8362C8.62006 16.4352 8.29161 16.1101 7.88645 16.1101C7.48128 16.1101 7.15283 16.4352 7.15283 16.8362C7.15283 17.2372 7.48128 17.5623 7.88645 17.5623Z" fill="#D55A46"/>
<path d="M14.2138 5.09184C14.619 5.09184 14.9475 4.76675 14.9475 4.36574C14.9475 3.96473 14.619 3.63965 14.2138 3.63965C13.8087 3.63965 13.4802 3.96473 13.4802 4.36574C13.4802 4.76675 13.8087 5.09184 14.2138 5.09184Z" fill="#D55A46"/>
<path d="M16.4743 5.09184C16.8795 5.09184 17.208 4.76675 17.208 4.36574C17.208 3.96473 16.8795 3.63965 16.4743 3.63965C16.0692 3.63965 15.7407 3.96473 15.7407 4.36574C15.7407 4.76675 16.0692 5.09184 16.4743 5.09184Z" fill="#D55A46"/>
</svg>
